<?xml version="1.0" encoding="UTF-8"?>
<!-- Created with Inkscape (http://www.inkscape.org/) -->
<svg width="126.48mm" height="10.27mm" version="1.1" viewBox="0 0 126.48 10.27" xmlns="http://www.w3.org/2000/svg">
<style type="text/css">
#text {
    fill: black;
    stroke: black;
    stroke-width: 0.2;
    paint-order:stroke fill markers;
}

@media (prefers-color-scheme: dark) {
    #text {
        fill: white;
    }
}
</style>
 <g transform="translate(-14.289 -14.565)">
  <path d="m14.289 14.565h27.897v10.27h-27.897z" fill="#f8e71c"/>
 </g>
 <g transform="translate(-14.289 -14.565)">
  <g stroke-width=".26458" aria-label="WONNX">
   <path d="m22.096 15.939-1.1218 7.5353h-1.016l-0.8255-4.8895h-0.02117l-0.81491 4.8895h-1.016l-1.1218-7.5353h1.143l0.53975 4.7837h0.02117l0.84666-4.7837h0.8255l0.87841 4.9001h0.02117l0.51858-4.9001z"/>
   <path d="m22.594 17.717q0-0.45508 0.15875-0.80433 0.15875-0.34925 0.42333-0.58208 0.254-0.22225 0.5715-0.33867 0.32808-0.11642 0.65616-0.11642 0.32808 0 0.64558 0.11642 0.32808 0.11642 0.59266 0.33867 0.254 0.23283 0.41275 0.58208 0.15875 0.34925 0.15875 0.80433v3.9793q0 0.47625-0.15875 0.81492-0.15875 0.33866-0.41275 0.56091-0.26458 0.23283-0.59266 0.34925-0.3175 0.11642-0.64558 0.11642-0.32808 0-0.65616-0.11642-0.3175-0.11642-0.5715-0.34925-0.26458-0.22225-0.42333-0.56091-0.15875-0.33867-0.15875-0.81492zm1.0795 3.9793q0 0.39158 0.21167 0.58208 0.22225 0.17992 0.51858 0.17992 0.29633 0 0.508-0.17992 0.22225-0.1905 0.22225-0.58208v-3.9793q0-0.39158-0.22225-0.5715-0.21167-0.1905-0.508-0.1905-0.29633 0-0.51858 0.1905-0.21167 0.17992-0.21167 0.5715z"/>
   <path d="m27.121 23.474v-7.5353h1.0372l1.6298 4.5402h0.02117v-4.5402h1.0795v7.5353h-1.016l-1.651-4.5297h-0.02117v4.5297z"/>
   <path d="m31.814 23.474v-7.5353h1.0372l1.6298 4.5402h0.02117v-4.5402h1.0795v7.5353h-1.016l-1.651-4.5297h-0.02117v4.5297z"/>
   <path d="m36.019 23.474 1.524-3.9476-1.4076-3.5877h1.143l0.81491 2.2331 0.8255-2.2331h1.143l-1.4393 3.5877 1.5557 3.9476h-1.143l-0.94191-2.54-0.93133 2.54z"/>
  </g>
  <g aria-label="Fast deep learning on any device" id="text">
   <path d="m45.414 16.149v2.1421h1.6849v0.51647h-1.6849v2.8025h-0.5842v-5.9944h2.3961v0.5334z"/>
   <path d="m49.716 21.61q-0.0085-0.06773-0.01693-0.16933 0-0.1016-0.0085-0.21167 0-0.11853 0-0.22013 0-0.11007 0-0.18627h-0.01693q-0.21167 0.89747-1.016 0.89747-0.1778 0-0.3556-0.06773t-0.32173-0.22013q-0.14393-0.1524-0.23707-0.381-0.09313-0.23707-0.09313-0.56727 0-0.4572 0.16087-0.7366t0.4064-0.44027q0.24553-0.16087 0.5334-0.21167 0.29633-0.05927 0.5588-0.05927h0.3302v-0.22013q0-0.55033-0.2032-0.80433t-0.55033-0.254q-0.23707 0-0.44027 0.127-0.2032 0.127-0.34713 0.32173l-0.29631-0.34713q0.19473-0.2794 0.508-0.4318t0.62653-0.1524q0.6604 0 0.9398 0.4318t0.2794 1.2615v1.7441q0 0.08467 0 0.21167 0.0085 0.127 0.0085 0.26247 0.0085 0.127 0.01693 0.24553 0.0085 0.11007 0.01693 0.1778zm-0.06773-2.1336h-0.33867q-0.2032 0-0.4064 0.04233-0.2032 0.03387-0.36407 0.14393-0.1524 0.1016-0.254 0.28787-0.1016 0.18627-0.1016 0.4826 0 0.44027 0.19473 0.635 0.19473 0.19473 0.42333 0.19473 0.23707 0 0.39793-0.14393 0.16933-0.14393 0.26247-0.36407 0.1016-0.22013 0.14393-0.4826 0.04233-0.26247 0.04233-0.508z"/>
   <path d="m52.978 18.138q-0.11007-0.18627-0.28787-0.29633-0.16933-0.11853-0.41487-0.11853-0.27093 0-0.44873 0.2032-0.16933 0.19473-0.16933 0.51647 0 0.33867 0.16933 0.49107 0.16933 0.1524 0.508 0.2794 0.16933 0.06773 0.33867 0.16933 0.16933 0.09313 0.29633 0.23707 0.13547 0.14393 0.22013 0.34713 0.08467 0.19473 0.08467 0.47413 0 0.61807-0.33867 0.9652-0.3302 0.33867-0.8636 0.33867-0.3556 0-0.65193-0.16087-0.29633-0.16933-0.49107-0.44873l0.33867-0.36407q0.14393 0.22013 0.33867 0.36407 0.2032 0.13547 0.47413 0.13547 0.29633 0 0.47413-0.21167 0.18627-0.22013 0.18627-0.57573 0-0.2032-0.06773-0.33867-0.06773-0.14393-0.1778-0.23707-0.11007-0.09313-0.254-0.16087-0.13547-0.06773-0.28787-0.127-0.16087-0.05927-0.31327-0.14393-0.14393-0.08467-0.26247-0.22013-0.11853-0.13547-0.19473-0.32173-0.06773-0.19473-0.06773-0.46567 0-0.26247 0.08467-0.4826 0.09313-0.22013 0.254-0.37253 0.16087-0.16087 0.36407-0.24553 0.21167-0.09313 0.4572-0.09313 0.3556 0 0.6096 0.14393 0.26247 0.13547 0.42333 0.3556z"/>
   <path d="m55.618 21.61q-0.09313 0.04233-0.2286 0.0762-0.13547 0.03387-0.2794 0.03387-0.44027 0-0.62653-0.3048-0.1778-0.3048-0.1778-0.8128v-2.7347h-0.55033v-0.4572h0.54187v-1.1599h0.55033v1.1599h0.74507v0.4572h-0.74507v2.6331q0 0.381 0.11007 0.5588 0.11007 0.16933 0.3302 0.16933 0.0762 0 0.16087-0.01693 0.08467-0.0254 0.14393-0.0508l0.0254 0.44873z"/>
   <path d="m60.042 21.61v-0.75353h-0.01693q-0.1016 0.381-0.33867 0.635t-0.66887 0.254q-0.32173 0-0.56727-0.16933-0.24553-0.16933-0.41487-0.46567-0.16933-0.3048-0.26247-0.7112-0.08467-0.41487-0.08467-0.90593 0-0.49107 0.08467-0.89747 0.08467-0.4064 0.24553-0.69427 0.16933-0.29633 0.41487-0.4572 0.254-0.16933 0.57573-0.16933 0.381 0 0.64347 0.23707 0.26247 0.2286 0.3556 0.6096h0.01693v-2.9125h0.5588v6.4008zm0-2.0997q0-0.37253-0.05927-0.69427-0.0508-0.32173-0.16933-0.55033-0.11007-0.23707-0.2794-0.37253-0.16933-0.13547-0.38947-0.13547-0.2286 0-0.39793 0.13547-0.16087 0.13547-0.27093 0.37253-0.11007 0.2286-0.16087 0.55033-0.0508 0.32173-0.0508 0.69427 0 0.36407 0.0508 0.6858 0.0508 0.31327 0.16087 0.55033 0.11007 0.23707 0.27093 0.37253 0.16933 0.13547 0.39793 0.13547t0.38947-0.13547q0.16933-0.13547 0.2794-0.37253 0.11853-0.23707 0.16933-0.55033 0.05927-0.32173 0.05927-0.6858z"/>
   <path d="m62.208 19.628q0 0.34713 0.05927 0.64347 0.05927 0.28787 0.16933 0.508 0.11853 0.21167 0.28787 0.33867 0.1778 0.11853 0.41487 0.11853 0.3048 0 0.49107-0.18627 0.18627-0.18627 0.28787-0.44873l0.42333 0.24553q-0.1524 0.381-0.4572 0.64347-0.29633 0.254-0.762 0.254-0.70273 0-1.0922-0.59267t-0.38947-1.6341q0-0.49107 0.1016-0.90593t0.28787-0.7112q0.19473-0.29633 0.46567-0.4572 0.2794-0.16933 0.61807-0.16933 0.37253 0 0.62653 0.16087 0.26247 0.16087 0.42333 0.44027 0.16087 0.2794 0.2286 0.65193 0.0762 0.37253 0.0762 0.79587v0.3048zm1.6933-0.46567q0-0.635-0.19473-1.016-0.19473-0.38947-0.6096-0.38947-0.24553 0-0.41487 0.1524-0.16087 0.14393-0.27093 0.36407-0.1016 0.21167-0.1524 0.4572-0.04233 0.24553-0.04233 0.4318z"/>
   <path d="m65.796 19.628q0 0.34713 0.05927 0.64347 0.05927 0.28787 0.16933 0.508 0.11853 0.21167 0.28787 0.33867 0.1778 0.11853 0.41487 0.11853 0.3048 0 0.49107-0.18627 0.18627-0.18627 0.28787-0.44873l0.42333 0.24553q-0.1524 0.381-0.4572 0.64347-0.29633 0.254-0.762 0.254-0.70273 0-1.0922-0.59267t-0.38947-1.6341q0-0.49107 0.1016-0.90593t0.28787-0.7112q0.19473-0.29633 0.46567-0.4572 0.2794-0.16933 0.61807-0.16933 0.37253 0 0.62653 0.16087 0.26247 0.16087 0.42333 0.44027 0.16087 0.2794 0.2286 0.65193 0.0762 0.37253 0.0762 0.79587v0.3048zm1.6933-0.46567q0-0.635-0.19473-1.016-0.19473-0.38947-0.6096-0.38947-0.24553 0-0.41487 0.1524-0.16087 0.14393-0.27093 0.36407-0.1016 0.21167-0.1524 0.4572-0.04233 0.24553-0.04233 0.4318z"/>
   <path d="m71.967 19.518q0 0.49107-0.08467 0.89747-0.08467 0.4064-0.254 0.70273-0.16933 0.29633-0.41487 0.46567-0.24553 0.16087-0.57573 0.16087-0.381 0-0.64347-0.23707-0.254-0.23707-0.3556-0.61807h-0.0085v2.7517h-0.5588v-6.2315h0.54187v0.75353h0.01693q0.1016-0.38947 0.33867-0.635 0.23707-0.254 0.66887-0.254 0.31327 0 0.5588 0.16933 0.254 0.16933 0.42333 0.46567 0.16933 0.29633 0.254 0.7112 0.09313 0.4064 0.09313 0.89747zm-0.57573-0.01693q0-0.36407-0.0508-0.67733-0.0508-0.32173-0.16087-0.5588-0.11007-0.23707-0.2794-0.37253-0.16087-0.13547-0.38947-0.13547t-0.39793 0.13547q-0.16087 0.13547-0.2794 0.37253-0.11007 0.23707-0.16933 0.5588-0.0508 0.31327-0.0508 0.67733 0 0.37253 0.0508 0.69427 0.05927 0.32173 0.16933 0.5588 0.11853 0.2286 0.28787 0.36407 0.16933 0.13547 0.38947 0.13547 0.2286 0 0.38947-0.13547 0.16933-0.13547 0.2794-0.36407 0.11007-0.23707 0.16087-0.5588 0.0508-0.32173 0.0508-0.69427z"/>
   <path d="m74.595 21.61v-6.4008h0.5588v6.4008z"/>
   <path d="m76.777 19.628q0 0.34713 0.05927 0.64347 0.05927 0.28787 0.16933 0.508 0.11853 0.21167 0.28787 0.33867 0.1778 0.11853 0.41487 0.11853 0.3048 0 0.49107-0.18627t0.28787-0.44873l0.42333 0.24553q-0.1524 0.381-0.4572 0.64347-0.29633 0.254-0.762 0.254-0.70273 0-1.0922-0.59267t-0.38947-1.6341q0-0.49107 0.1016-0.90593t0.28787-0.7112q0.19473-0.29633 0.46567-0.4572 0.2794-0.16933 0.61807-0.16933 0.37253 0 0.62653 0.16087 0.26247 0.16087 0.42333 0.44027 0.16087 0.2794 0.2286 0.65193 0.0762 0.37253 0.0762 0.79587v0.3048zm1.6933-0.46567q0-0.635-0.19473-1.016-0.19473-0.38947-0.6096-0.38947-0.24553 0-0.41487 0.1524-0.16087 0.14393-0.27093 0.36407-0.1016 0.21167-0.1524 0.4572-0.04233 0.24553-0.04233 0.4318z"/>
   <path d="m81.763 21.61q-0.0085-0.06773-0.01693-0.16933 0-0.1016-0.0085-0.21167 0-0.11853 0-0.22013 0-0.11007 0-0.18627h-0.01693q-0.21167 0.89747-1.016 0.89747-0.1778 0-0.3556-0.06773t-0.32173-0.22013q-0.14393-0.1524-0.23707-0.381-0.09313-0.23707-0.09313-0.56727 0-0.4572 0.16087-0.7366t0.4064-0.44027q0.24553-0.16087 0.5334-0.21167 0.29633-0.05927 0.5588-0.05927h0.3302v-0.22013q0-0.55033-0.2032-0.80433t-0.55033-0.254q-0.23707 0-0.44027 0.127t-0.34713 0.32173l-0.29633-0.34713q0.19473-0.2794 0.508-0.4318 0.31327-0.1524 0.62653-0.1524 0.6604 0 0.9398 0.4318 0.2794 0.4318 0.2794 1.2615v1.7441q0 0.08467 0 0.21167 0.0085 0.127 0.0085 0.26247 0.0085 0.127 0.01693 0.24553 0.0085 0.11007 0.01693 0.1778zm-0.06773-2.1336h-0.33867q-0.2032 0-0.4064 0.04233-0.2032 0.03387-0.36407 0.14393-0.1524 0.1016-0.254 0.28787-0.1016 0.18627-0.1016 0.4826 0 0.44027 0.19473 0.635 0.19473 0.19473 0.42333 0.19473 0.23707 0 0.39793-0.14393 0.16933-0.14393 0.26247-0.36407 0.1016-0.22013 0.14393-0.4826 0.04233-0.26247 0.04233-0.508z"/>
   <path d="m84.018 18.325q0.11853-0.55033 0.36407-0.79587 0.24553-0.24553 0.5588-0.24553 0.06773 0 0.1016 0.0085l-0.01693 0.57573q-0.03387-0.0085-0.06773-0.0085-0.0254-0.0085-0.06773-0.0085-0.21167 0-0.381 0.14393-0.16087 0.14393-0.27093 0.37253-0.11007 0.2286-0.16933 0.52493-0.0508 0.28787-0.0508 0.57573v2.1421h-0.5588v-3.1411q0-0.13547-0.0085-0.28787 0-0.16087-0.0085-0.3048 0-0.1524-0.0085-0.27093 0-0.127-0.0085-0.19473h0.54187q0.01693 0.16087 0.0254 0.4064 0.0085 0.23707 0.0085 0.508h0.01693z"/>
   <path d="m87.891 21.61v-2.7093q0-0.19473-0.0254-0.38947-0.01693-0.2032-0.09313-0.36407-0.06773-0.16933-0.2032-0.27093-0.127-0.11007-0.33867-0.11007t-0.381 0.11853q-0.16087 0.11007-0.2794 0.31327-0.11007 0.19473-0.1778 0.4572-0.05927 0.254-0.05927 0.5334v2.4215h-0.5588v-3.1411q0-0.13547-0.0085-0.28787 0-0.16087-0.0085-0.3048 0-0.1524-0.0085-0.27093 0-0.127-0.0085-0.19473h0.54187q0.01693 0.16087 0.0254 0.38947 0.0085 0.2286 0.0085 0.4318h0.01693q0.11853-0.42333 0.38947-0.6858 0.27093-0.27093 0.67733-0.27093 0.33867 0 0.54187 0.14393 0.21167 0.14393 0.32173 0.381 0.11007 0.2286 0.14393 0.52493 0.04233 0.28787 0.04233 0.57573v2.7093z"/>
   <path d="m90.378 16.123q0 0.1778-0.11007 0.29633-0.11007 0.11007-0.26247 0.11007-0.16087 0-0.27093-0.11007-0.1016-0.11853-0.1016-0.29633 0-0.16933 0.1016-0.28787 0.11007-0.11853 0.27093-0.11853 0.16087 0 0.26247 0.11853 0.11007 0.11853 0.11007 0.28787zm-0.65193 5.4864v-4.1995h0.5588v4.1995z"/>
   <path d="m93.745 21.61v-2.7093q0-0.19473-0.0254-0.38947-0.01693-0.2032-0.09313-0.36407-0.06773-0.16933-0.2032-0.27093-0.127-0.11007-0.33867-0.11007-0.21167 0-0.381 0.11853-0.16087 0.11007-0.2794 0.31327-0.11007 0.19473-0.1778 0.4572-0.05927 0.254-0.05927 0.5334v2.4215h-0.5588v-3.1411q0-0.13547-0.0085-0.28787 0-0.16087-0.0085-0.3048 0-0.1524-0.0085-0.27093 0-0.127-0.0085-0.19473h0.54187q0.01693 0.16087 0.0254 0.38947 0.0085 0.2286 0.0085 0.4318h0.01693q0.11853-0.42333 0.38947-0.6858 0.27093-0.27093 0.67733-0.27093 0.33867 0 0.54187 0.14393 0.21167 0.14393 0.32173 0.381 0.11007 0.2286 0.14393 0.52493 0.04233 0.28787 0.04233 0.57573v2.7093z"/>
   <path d="m98.221 21.55q0 0.44873-0.0762 0.82973-0.06773 0.381-0.23707 0.6604-0.16933 0.2794-0.4572 0.44027t-0.71967 0.16087q-0.41487 0-0.77893-0.19473-0.3556-0.18627-0.57573-0.508l0.36407-0.38947q0.16933 0.26247 0.42333 0.42333 0.26247 0.16087 0.5842 0.16087 0.2794 0 0.4572-0.11853 0.18627-0.11853 0.28787-0.3302t0.14393-0.49953q0.04233-0.28787 0.04233-0.635v-0.69427h-0.01693q-0.1016 0.381-0.33867 0.635t-0.66887 0.254q-0.32173 0-0.56727-0.16933-0.24553-0.16933-0.41487-0.46567-0.16933-0.3048-0.26247-0.7112-0.084667-0.41487-0.084667-0.90593 0-0.49107 0.08467-0.89747 0.08467-0.4064 0.24553-0.69427 0.16933-0.29633 0.41487-0.4572 0.254-0.16933 0.57573-0.16933 0.381 0 0.64347 0.23707 0.27093 0.2286 0.36407 0.6096h0.0254v-0.7112h0.54187zm-0.54187-2.0405q0-0.36407-0.05927-0.6858-0.0508-0.32173-0.16933-0.5588-0.11007-0.23707-0.2794-0.37253t-0.38947-0.13547q-0.2286 0-0.39793 0.13547-0.16087 0.13547-0.27093 0.37253-0.11007 0.2286-0.16087 0.55033-0.0508 0.32173-0.0508 0.69427 0 0.36407 0.0508 0.6858 0.0508 0.31327 0.16087 0.55033 0.11007 0.23707 0.27093 0.37253 0.16933 0.13547 0.39793 0.13547t0.38947-0.13547q0.16933-0.13547 0.2794-0.36407 0.11853-0.23707 0.16933-0.55033 0.05927-0.32173 0.05927-0.69427z"/>
   <path d="m103.78 19.518q0 0.49953-0.1016 0.90593t-0.28787 0.70273q-0.18627 0.29633-0.46567 0.4572-0.27093 0.16087-0.6096 0.16087-0.33866 0-0.6096-0.16087-0.27093-0.16087-0.46567-0.4572-0.18626-0.29633-0.28786-0.70273t-0.1016-0.90593q0-0.49953 0.0931-0.9144 0.1016-0.41487 0.28787-0.7112 0.18627-0.29633 0.4572-0.4572 0.2794-0.16087 0.62653-0.16087 0.33867 0 0.6096 0.16087 0.2794 0.16087 0.46567 0.4572 0.18627 0.29633 0.28787 0.7112t0.1016 0.9144zm-0.57574-0.0085q0-0.37253-0.0593-0.69427-0.0508-0.32173-0.16087-0.55033-0.11007-0.23707-0.2794-0.37253-0.16087-0.13547-0.38947-0.13547t-0.39793 0.13547-0.2794 0.37253q-0.1016 0.2286-0.16087 0.55033-0.0508 0.32173-0.0508 0.69427 0 0.37253 0.0508 0.6858 0.0593 0.31327 0.16087 0.55033 0.11007 0.23707 0.2794 0.37253 0.16933 0.127 0.39793 0.127t0.39794-0.127q0.16933-0.13547 0.27093-0.37253 0.11007-0.23707 0.16087-0.55033 0.0593-0.31327 0.0593-0.6858z"/>
   <path d="m106.97 21.61v-2.7093q0-0.19473-0.0254-0.38947-0.0169-0.2032-0.0931-0.36407-0.0677-0.16933-0.2032-0.27093-0.127-0.11007-0.33867-0.11007t-0.381 0.11853q-0.16087 0.11007-0.2794 0.31327-0.11007 0.19473-0.1778 0.4572-0.0593 0.254-0.0593 0.5334v2.4215h-0.5588v-3.1411q0-0.13547-8e-3 -0.28787 0-0.16087-8e-3 -0.3048 0-0.1524-8e-3 -0.27093 0-0.127-8e-3 -0.19473h0.54186q0.0169 0.16087 0.0254 0.38947 8e-3 0.2286 8e-3 0.4318h0.0169q0.11854-0.42333 0.38947-0.6858 0.27093-0.27093 0.67733-0.27093 0.33867 0 0.54187 0.14393 0.21167 0.14393 0.32173 0.381 0.11007 0.2286 0.14394 0.52493 0.0423 0.28787 0.0423 0.57573v2.7093z"/>
   <path d="m112.14 21.61q-8e-3 -0.06773-0.0169-0.16933 0-0.1016-8e-3 -0.21167 0-0.11853 0-0.22013 0-0.11007 0-0.18627h-0.0169q-0.21167 0.89747-1.016 0.89747-0.1778 0-0.3556-0.06773t-0.32174-0.22013q-0.14393-0.1524-0.23706-0.381-0.0931-0.23707-0.0931-0.56727 0-0.4572 0.16087-0.7366t0.4064-0.44027 0.5334-0.21167q0.29633-0.05927 0.5588-0.05927h0.3302v-0.22013q0-0.55033-0.2032-0.80433t-0.55033-0.254q-0.23707 0-0.44027 0.127t-0.34713 0.32173l-0.29634-0.34713q0.19474-0.2794 0.508-0.4318 0.31327-0.1524 0.62654-0.1524 0.6604 0 0.9398 0.4318t0.2794 1.2615v1.7441q0 0.08467 0 0.21167 8e-3 0.127 8e-3 0.26247 8e-3 0.127 0.0169 0.24553 8e-3 0.11007 0.0169 0.1778zm-0.0677-2.1336h-0.33867q-0.2032 0-0.4064 0.04233-0.2032 0.03387-0.36407 0.14393-0.1524 0.1016-0.254 0.28787-0.1016 0.18627-0.1016 0.4826 0 0.44027 0.19474 0.635 0.19473 0.19473 0.42333 0.19473 0.23707 0 0.39793-0.14393 0.16934-0.14393 0.26247-0.36407 0.1016-0.22013 0.14393-0.4826 0.0423-0.26247 0.0423-0.508z"/>
   <path d="m115.95 21.61v-2.7093q0-0.19473-0.0254-0.38947-0.0169-0.2032-0.0931-0.36407-0.0677-0.16933-0.2032-0.27093-0.127-0.11007-0.33866-0.11007-0.21167 0-0.381 0.11853-0.16087 0.11007-0.2794 0.31327-0.11007 0.19473-0.1778 0.4572-0.0593 0.254-0.0593 0.5334v2.4215h-0.5588v-3.1411q0-0.13547-8e-3 -0.28787 0-0.16087-8e-3 -0.3048 0-0.1524-8e-3 -0.27093 0-0.127-8e-3 -0.19473h0.54187q0.0169 0.16087 0.0254 0.38947 8e-3 0.2286 8e-3 0.4318h0.0169q0.11853-0.42333 0.38947-0.6858 0.27093-0.27093 0.67733-0.27093 0.33867 0 0.54187 0.14393 0.21166 0.14393 0.32173 0.381 0.11007 0.2286 0.14393 0.52493 0.0423 0.28787 0.0423 0.57573v2.7093z"/>
   <path d="m118.85 22.499q-0.0677 0.27093-0.16087 0.4826-0.0847 0.21167-0.21167 0.3556-0.127 0.14393-0.29633 0.22013-0.16087 0.08467-0.38947 0.08467-0.11853 0-0.23706-0.0254-0.11854-0.01693-0.19474-0.04233l0.0762-0.49953q0.0593 0.01693 0.14394 0.03387 0.0847 0.01693 0.16933 0.01693 0.24553 0 0.36407-0.16933 0.127-0.16933 0.2032-0.46567l0.18626-0.72813-1.2192-4.3519h0.59267l0.90593 3.5475h0.0169l0.80433-3.5475h0.56727z"/>
   <path d="m124.63 21.61v-0.75353h-0.0169q-0.1016 0.381-0.33867 0.635t-0.66887 0.254q-0.32173 0-0.56726-0.16933-0.24554-0.16933-0.41487-0.46567-0.16933-0.3048-0.26247-0.7112-0.0847-0.41487-0.0847-0.90593 0-0.49107 0.0847-0.89747 0.0847-0.4064 0.24554-0.69427 0.16933-0.29633 0.41486-0.4572 0.254-0.16933 0.57574-0.16933 0.381 0 0.64346 0.23707 0.26247 0.2286 0.3556 0.6096h0.0169v-2.9125h0.5588v6.4008zm0-2.0997q0-0.37253-0.0593-0.69427-0.0508-0.32173-0.16933-0.55033-0.11007-0.23707-0.2794-0.37253t-0.38947-0.13547q-0.2286 0-0.39793 0.13547-0.16087 0.13547-0.27093 0.37253-0.11007 0.2286-0.16087 0.55033-0.0508 0.32173-0.0508 0.69427 0 0.36407 0.0508 0.6858 0.0508 0.31327 0.16087 0.55033 0.11006 0.23707 0.27093 0.37253 0.16933 0.13547 0.39793 0.13547t0.38947-0.13547q0.16933-0.13547 0.2794-0.37253 0.11853-0.23707 0.16933-0.55033 0.0593-0.32173 0.0593-0.6858z"/>
   <path d="m126.8 19.628q0 0.34713 0.0593 0.64347 0.0593 0.28787 0.16933 0.508 0.11853 0.21167 0.28787 0.33867 0.1778 0.11853 0.41486 0.11853 0.30481 0 0.49107-0.18627 0.18627-0.18627 0.28787-0.44873l0.42333 0.24553q-0.1524 0.381-0.4572 0.64347-0.29633 0.254-0.762 0.254-0.70273 0-1.0922-0.59267t-0.38947-1.6341q0-0.49107 0.1016-0.90593t0.28787-0.7112q0.19473-0.29633 0.46567-0.4572 0.2794-0.16933 0.61806-0.16933 0.37254 0 0.62654 0.16087 0.26247 0.16087 0.42333 0.44027 0.16087 0.2794 0.2286 0.65193 0.0762 0.37253 0.0762 0.79587v0.3048zm1.6933-0.46567q0-0.635-0.19474-1.016-0.19473-0.38947-0.6096-0.38947-0.24553 0-0.41487 0.1524-0.16086 0.14393-0.27093 0.36407-0.1016 0.21167-0.1524 0.4572-0.0423 0.24553-0.0423 0.4318z"/>
   <path d="m131.35 21.61h-0.6604l-1.1261-4.1995h0.59267l0.87207 3.6068h0.0169l0.82973-3.6068h0.57574z"/>
   <path d="m133.9 16.123q0 0.1778-0.11007 0.29633-0.11006 0.11007-0.26246 0.11007-0.16087 0-0.27094-0.11007-0.1016-0.11853-0.1016-0.29633 0-0.16933 0.1016-0.28787 0.11007-0.11853 0.27094-0.11853 0.16086 0 0.26246 0.11853 0.11007 0.11853 0.11007 0.28787zm-0.65193 5.4864v-4.1995h0.5588v4.1995z"/>
   <path d="m137.24 21.313q-0.33866 0.4318-0.93133 0.4318-0.3556 0-0.62653-0.16087-0.27094-0.16933-0.4572-0.4572-0.1778-0.29633-0.27094-0.70273-0.0931-0.41487-0.0931-0.9144 0-0.49953 0.0931-0.90593 0.0931-0.41487 0.2794-0.7112 0.18627-0.29633 0.4572-0.4572 0.27094-0.16087 0.62654-0.16087 0.32173 0 0.55033 0.11853 0.2286 0.11853 0.36407 0.2794l-0.29634 0.4064q-0.1016-0.14393-0.254-0.2286-0.1524-0.08467-0.3556-0.08467-0.2286 0-0.39793 0.13547-0.16087 0.127-0.27093 0.36407-0.11007 0.2286-0.16934 0.55033-0.0508 0.31327-0.0508 0.69427 0 0.37253 0.0508 0.6858 0.0593 0.31327 0.16934 0.54187 0.11006 0.2286 0.2794 0.3556 0.1778 0.127 0.41486 0.127 0.21167 0 0.36407-0.08467 0.16087-0.09313 0.27093-0.254l0.254 0.4318z"/>
   <path d="m138.28 19.628q0 0.34713 0.0593 0.64347 0.0593 0.28787 0.16933 0.508 0.11854 0.21167 0.28787 0.33867 0.1778 0.11853 0.41487 0.11853 0.3048 0 0.49106-0.18627 0.18627-0.18627 0.28787-0.44873l0.42334 0.24553q-0.1524 0.381-0.4572 0.64347-0.29634 0.254-0.76201 0.254-0.70273 0-1.0922-0.59267-0.38946-0.59267-0.38946-1.6341 0-0.49107 0.1016-0.90593t0.28786-0.7112q0.19474-0.29633 0.46567-0.4572 0.2794-0.16933 0.61807-0.16933 0.37253 0 0.62653 0.16087 0.26247 0.16087 0.42334 0.44027 0.16086 0.2794 0.2286 0.65193 0.0762 0.37253 0.0762 0.79587v0.3048zm1.6933-0.46567q0-0.635-0.19474-1.016-0.19473-0.38947-0.6096-0.38947-0.24553 0-0.41486 0.1524-0.16087 0.14393-0.27094 0.36407-0.1016 0.21167-0.1524 0.4572-0.0423 0.24553-0.0423 0.4318z"/>
  </g>
 </g>
 <g transform="translate(-14.289 -14.565)" display="none">
  <rect x="14.969" y="49.298" width="32" height="32" fill="#f00" opacity=".25"/>
  <rect x="14.289" y="14.565" width="128.6" height="10.27" fill="#0f0" opacity=".25"/>
 </g>
</svg>
